<mxfile host="app.diagrams.net" modified="2023-11-10T15:01:17.810Z" agent="Mozilla/5.0 (X11; Linux x86_64; rv:109.0) Gecko/20100101 Firefox/113.0" etag="7V41kJD8gxQ-YO1MUQ-J" version="21.6.6" type="github">
  <diagram name="Page-1" id="D-YBt0P7oRCqQpfg0WSd">
    <mxGraphModel dx="1434" dy="738" grid="1" gridSize="10" guides="1" tooltips="1" connect="1" arrows="1" fold="1" page="1" pageScale="1" pageWidth="850" pageHeight="1100" math="0" shadow="0">
      <root>
        <mxCell id="0" />
        <mxCell id="1" parent="0" />
        <mxCell id="I7dOiUxlM5Ej7QzCod-e-1" value="&lt;font style=&quot;font-size: 30px;&quot;&gt;MODELO&lt;/font&gt;" style="sketch=0;outlineConnect=0;fontColor=#232F3E;gradientColor=none;fillColor=#067F68;strokeColor=none;dashed=0;verticalLabelPosition=bottom;verticalAlign=top;align=center;html=1;fontSize=12;fontStyle=0;aspect=fixed;pointerEvents=1;shape=mxgraph.aws4.sagemaker_model;" parent="1" vertex="1">
          <mxGeometry x="149" y="200" width="78" height="78" as="geometry" />
        </mxCell>
        <mxCell id="I7dOiUxlM5Ej7QzCod-e-2" value="APLICACIÓN" style="sketch=0;outlineConnect=0;fontColor=#232F3E;gradientColor=none;fillColor=#3F8624;strokeColor=none;dashed=0;verticalLabelPosition=bottom;verticalAlign=top;align=center;html=1;fontSize=30;fontStyle=0;aspect=fixed;pointerEvents=1;shape=mxgraph.aws4.car;strokeWidth=9;" parent="1" vertex="1">
          <mxGeometry x="506" y="830" width="64" height="64" as="geometry" />
        </mxCell>
        <mxCell id="I7dOiUxlM5Ej7QzCod-e-3" value="Mejora" style="image;html=1;image=img/lib/clip_art/computers/Software_128x128.png;imageBackground=none;fontSize=16;fontStyle=1;fontFamily=Verdana;fontColor=#0066CC;" parent="1" vertex="1">
          <mxGeometry x="750" y="470" width="40" height="60" as="geometry" />
        </mxCell>
        <mxCell id="I7dOiUxlM5Ej7QzCod-e-4" value="" style="sketch=0;outlineConnect=0;fontColor=#232F3E;gradientColor=none;fillColor=#232F3D;strokeColor=none;dashed=0;verticalLabelPosition=bottom;verticalAlign=top;align=center;html=1;fontSize=12;fontStyle=0;aspect=fixed;pointerEvents=1;shape=mxgraph.aws4.external_sdk;" parent="1" vertex="1">
          <mxGeometry x="700" y="130" width="68" height="78" as="geometry" />
        </mxCell>
        <mxCell id="I7dOiUxlM5Ej7QzCod-e-5" value="&lt;div&gt;Generador de Código&lt;/div&gt;" style="image;sketch=0;aspect=fixed;html=1;points=[];align=center;fontSize=12;image=img/lib/mscae/Data_Lake_Analytics.svg;" parent="1" vertex="1">
          <mxGeometry x="500" y="200" width="130" height="130" as="geometry" />
        </mxCell>
        <mxCell id="I7dOiUxlM5Ej7QzCod-e-6" value="&lt;div&gt;Calidad y agilidad en la producción de Software&lt;/div&gt;&lt;div&gt;&lt;br&gt;&lt;/div&gt;" style="text;html=1;strokeColor=none;fillColor=none;align=center;verticalAlign=middle;whiteSpace=wrap;rounded=0;" parent="1" vertex="1">
          <mxGeometry x="230" y="48" width="340" height="42" as="geometry" />
        </mxCell>
        <mxCell id="I7dOiUxlM5Ej7QzCod-e-10" value="" style="curved=1;endArrow=classic;html=1;rounded=0;" parent="1" source="I7dOiUxlM5Ej7QzCod-e-1" target="I7dOiUxlM5Ej7QzCod-e-5" edge="1">
          <mxGeometry width="50" height="50" relative="1" as="geometry">
            <mxPoint x="620" y="440" as="sourcePoint" />
            <mxPoint x="670" y="390" as="targetPoint" />
            <Array as="points">
              <mxPoint x="320" y="140" />
            </Array>
          </mxGeometry>
        </mxCell>
        <mxCell id="I7dOiUxlM5Ej7QzCod-e-15" value="" style="html=1;outlineConnect=0;whiteSpace=wrap;fillColor=#99ffff;shape=mxgraph.archimate3.component;rotation=90;" parent="1" vertex="1">
          <mxGeometry x="660" y="355" width="70" height="75" as="geometry" />
        </mxCell>
        <mxCell id="I7dOiUxlM5Ej7QzCod-e-17" value="APLICACIÓN" style="sketch=0;outlineConnect=0;fontColor=#232F3E;gradientColor=none;fillColor=#3F8624;strokeColor=none;dashed=0;verticalLabelPosition=bottom;verticalAlign=top;align=center;html=1;fontSize=30;fontStyle=0;aspect=fixed;pointerEvents=1;shape=mxgraph.aws4.car;strokeWidth=9;" parent="1" vertex="1">
          <mxGeometry x="140" y="750" width="64" height="64" as="geometry" />
        </mxCell>
        <mxCell id="I7dOiUxlM5Ej7QzCod-e-19" value="" style="image;sketch=0;aspect=fixed;html=1;points=[];align=center;fontSize=12;image=img/lib/mscae/Resource_Graph_Explorer.svg;" parent="1" vertex="1">
          <mxGeometry x="100" y="140" width="49" height="50" as="geometry" />
        </mxCell>
        <mxCell id="I7dOiUxlM5Ej7QzCod-e-25" value="&lt;div&gt;Marco de Soporte&lt;/div&gt;" style="text;html=1;strokeColor=none;fillColor=none;align=center;verticalAlign=middle;whiteSpace=wrap;rounded=0;" parent="1" vertex="1">
          <mxGeometry x="730" y="420" width="60" height="30" as="geometry" />
        </mxCell>
        <mxCell id="I7dOiUxlM5Ej7QzCod-e-26" value="" style="verticalLabelPosition=bottom;aspect=fixed;html=1;verticalAlign=top;fillColor=strokeColor;align=center;outlineConnect=0;shape=mxgraph.fluid_power.x10060;points=[[1,0.72,0],[1,1,0]]" parent="1" vertex="1">
          <mxGeometry x="550" y="147.31" width="62.6" height="35.38" as="geometry" />
        </mxCell>
        <mxCell id="I7dOiUxlM5Ej7QzCod-e-27" value="" style="verticalLabelPosition=bottom;outlineConnect=0;align=center;dashed=0;html=1;verticalAlign=top;shape=mxgraph.pid.misc.roller_conveyor;" parent="1" vertex="1">
          <mxGeometry x="265" y="147.31" width="160" height="20" as="geometry" />
        </mxCell>
        <mxCell id="I7dOiUxlM5Ej7QzCod-e-29" value="" style="curved=1;endArrow=classic;html=1;rounded=0;exitX=-0.031;exitY=0.377;exitDx=0;exitDy=0;exitPerimeter=0;" parent="1" source="I7dOiUxlM5Ej7QzCod-e-5" target="mOpAcGfMaJ8iik6jQmdD-8" edge="1">
          <mxGeometry width="50" height="50" relative="1" as="geometry">
            <mxPoint x="490" y="230" as="sourcePoint" />
            <mxPoint x="519" y="416" as="targetPoint" />
            <Array as="points">
              <mxPoint x="440" y="280" />
            </Array>
          </mxGeometry>
        </mxCell>
        <mxCell id="I7dOiUxlM5Ej7QzCod-e-30" value="" style="curved=1;endArrow=classic;html=1;rounded=0;" parent="1" source="I7dOiUxlM5Ej7QzCod-e-15" target="mOpAcGfMaJ8iik6jQmdD-8" edge="1">
          <mxGeometry width="50" height="50" relative="1" as="geometry">
            <mxPoint x="620" y="410" as="sourcePoint" />
            <mxPoint x="481" y="391" as="targetPoint" />
          </mxGeometry>
        </mxCell>
        <mxCell id="mOpAcGfMaJ8iik6jQmdD-1" value="" style="group;fillColor=#f9f7ed;strokeColor=#36393d;" vertex="1" connectable="0" parent="1">
          <mxGeometry x="341.5" y="527.25" width="192.5" height="175.5" as="geometry" />
        </mxCell>
        <mxCell id="I7dOiUxlM5Ej7QzCod-e-13" value="" style="html=1;outlineConnect=0;whiteSpace=wrap;fillColor=#99ffff;shape=mxgraph.archimate3.component;rotation=90;" parent="mOpAcGfMaJ8iik6jQmdD-1" vertex="1">
          <mxGeometry x="27.25" y="60.75" width="77.5" height="97" as="geometry" />
        </mxCell>
        <mxCell id="I7dOiUxlM5Ej7QzCod-e-14" value="" style="html=1;outlineConnect=0;whiteSpace=wrap;fillColor=#fad7ac;shape=mxgraph.archimate3.component;rotation=-90;strokeColor=#b46504;" parent="mOpAcGfMaJ8iik6jQmdD-1" vertex="1">
          <mxGeometry x="20.25" y="22.25" width="43.5" height="52" as="geometry" />
        </mxCell>
        <mxCell id="I7dOiUxlM5Ej7QzCod-e-16" value="" style="html=1;outlineConnect=0;whiteSpace=wrap;fillColor=#fad7ac;shape=mxgraph.archimate3.component;rotation=-90;strokeColor=#b46504;" parent="mOpAcGfMaJ8iik6jQmdD-1" vertex="1">
          <mxGeometry x="72.5" y="18" width="47.5" height="52.5" as="geometry" />
        </mxCell>
        <mxCell id="I7dOiUxlM5Ej7QzCod-e-23" value="&lt;div&gt;Marco de Soporte&lt;/div&gt;" style="text;html=1;strokeColor=none;fillColor=none;align=center;verticalAlign=middle;whiteSpace=wrap;rounded=0;" parent="mOpAcGfMaJ8iik6jQmdD-1" vertex="1">
          <mxGeometry x="118.5" y="112.75" width="60" height="30" as="geometry" />
        </mxCell>
        <mxCell id="mOpAcGfMaJ8iik6jQmdD-5" value="" style="curved=1;endArrow=classic;html=1;rounded=0;entryX=1;entryY=0;entryDx=0;entryDy=0;entryPerimeter=0;" edge="1" parent="1" source="mOpAcGfMaJ8iik6jQmdD-8" target="I7dOiUxlM5Ej7QzCod-e-16">
          <mxGeometry width="50" height="50" relative="1" as="geometry">
            <mxPoint x="495" y="441" as="sourcePoint" />
            <mxPoint x="450" y="390" as="targetPoint" />
            <Array as="points">
              <mxPoint x="480" y="480" />
              <mxPoint x="380" y="460" />
            </Array>
          </mxGeometry>
        </mxCell>
        <mxCell id="mOpAcGfMaJ8iik6jQmdD-8" value="" style="sketch=0;outlineConnect=0;fontColor=#232F3E;gradientColor=none;fillColor=#4D27AA;strokeColor=none;dashed=0;verticalLabelPosition=bottom;verticalAlign=top;align=center;html=1;fontSize=12;fontStyle=0;aspect=fixed;pointerEvents=1;shape=mxgraph.aws4.glue_databrew;rotation=90;" vertex="1" parent="1">
          <mxGeometry x="460" y="390" width="74" height="74" as="geometry" />
        </mxCell>
        <mxCell id="mOpAcGfMaJ8iik6jQmdD-9" value="" style="verticalLabelPosition=bottom;verticalAlign=top;html=1;shape=mxgraph.basic.flash;fillColor=#ffcd28;gradientColor=#ffa500;strokeColor=#d79b00;" vertex="1" parent="1">
          <mxGeometry x="708" y="750" width="60" height="100" as="geometry" />
        </mxCell>
        <mxCell id="mOpAcGfMaJ8iik6jQmdD-10" value="" style="curved=1;endArrow=classic;html=1;rounded=0;" edge="1" parent="1" target="mOpAcGfMaJ8iik6jQmdD-4">
          <mxGeometry width="50" height="50" relative="1" as="geometry">
            <mxPoint x="538.13" y="613.25" as="sourcePoint" />
            <mxPoint x="598.13" y="561.25" as="targetPoint" />
            <Array as="points">
              <mxPoint x="660" y="650" />
            </Array>
          </mxGeometry>
        </mxCell>
        <mxCell id="mOpAcGfMaJ8iik6jQmdD-21" value="Pruebas" style="edgeLabel;html=1;align=center;verticalAlign=middle;resizable=0;points=[];" vertex="1" connectable="0" parent="mOpAcGfMaJ8iik6jQmdD-10">
          <mxGeometry x="-0.2953" y="-2" relative="1" as="geometry">
            <mxPoint x="44" y="9" as="offset" />
          </mxGeometry>
        </mxCell>
        <mxCell id="mOpAcGfMaJ8iik6jQmdD-12" value="" style="group;fillColor=#eeeeee;strokeColor=#36393d;" vertex="1" connectable="0" parent="1">
          <mxGeometry x="630" y="524" width="82" height="90" as="geometry" />
        </mxCell>
        <mxCell id="I7dOiUxlM5Ej7QzCod-e-12" value="" style="image;sketch=0;aspect=fixed;html=1;points=[];align=center;fontSize=12;image=img/lib/mscae/Azure_Test_Plans.svg;" parent="mOpAcGfMaJ8iik6jQmdD-12" vertex="1">
          <mxGeometry x="48.45454545454545" y="21.09375" width="31.640625" height="35.15625" as="geometry" />
        </mxCell>
        <mxCell id="I7dOiUxlM5Ej7QzCod-e-18" value="" style="image;sketch=0;aspect=fixed;html=1;points=[];align=center;fontSize=12;image=img/lib/mscae/Monitor.svg;" parent="mOpAcGfMaJ8iik6jQmdD-12" vertex="1">
          <mxGeometry x="5.963636363636364" width="35.15625" height="35.15625" as="geometry" />
        </mxCell>
        <mxCell id="mOpAcGfMaJ8iik6jQmdD-4" value="" style="sketch=0;outlineConnect=0;fontColor=#232F3E;gradientColor=none;fillColor=#232F3D;strokeColor=none;dashed=0;verticalLabelPosition=bottom;verticalAlign=top;align=center;html=1;fontSize=12;fontStyle=0;aspect=fixed;pointerEvents=1;shape=mxgraph.aws4.magnifying_glass;" vertex="1" parent="mOpAcGfMaJ8iik6jQmdD-12">
          <mxGeometry y="35.15625" width="54.84375" height="54.84375" as="geometry" />
        </mxCell>
        <mxCell id="mOpAcGfMaJ8iik6jQmdD-13" value="" style="curved=1;endArrow=classic;html=1;rounded=0;" edge="1" parent="1" target="I7dOiUxlM5Ej7QzCod-e-15">
          <mxGeometry width="50" height="50" relative="1" as="geometry">
            <mxPoint x="710" y="550" as="sourcePoint" />
            <mxPoint x="800" y="538" as="targetPoint" />
            <Array as="points">
              <mxPoint x="760" y="500" />
            </Array>
          </mxGeometry>
        </mxCell>
        <mxCell id="mOpAcGfMaJ8iik6jQmdD-15" value="" style="curved=1;endArrow=classic;html=1;rounded=0;" edge="1" parent="1" source="mOpAcGfMaJ8iik6jQmdD-19" target="I7dOiUxlM5Ej7QzCod-e-1">
          <mxGeometry width="50" height="50" relative="1" as="geometry">
            <mxPoint x="176" y="479" as="sourcePoint" />
            <mxPoint x="130" y="230" as="targetPoint" />
            <Array as="points">
              <mxPoint x="40" y="360" />
              <mxPoint x="80" y="250" />
            </Array>
          </mxGeometry>
        </mxCell>
        <mxCell id="mOpAcGfMaJ8iik6jQmdD-16" value="" style="group;fillColor=#f9f7ed;strokeColor=#36393d;rounded=1;shadow=1;glass=0;perimeterSpacing=2;" vertex="1" connectable="0" parent="1">
          <mxGeometry x="97" y="550" width="130" height="130" as="geometry" />
        </mxCell>
        <mxCell id="mOpAcGfMaJ8iik6jQmdD-17" value="" style="image;sketch=0;aspect=fixed;html=1;points=[];align=center;fontSize=12;image=img/lib/mscae/Azure_Test_Plans.svg;" vertex="1" parent="mOpAcGfMaJ8iik6jQmdD-16">
          <mxGeometry x="76.82" y="40" width="34.84" height="38.71" as="geometry" />
        </mxCell>
        <mxCell id="mOpAcGfMaJ8iik6jQmdD-18" value="" style="image;sketch=0;aspect=fixed;html=1;points=[];align=center;fontSize=12;image=img/lib/mscae/Monitor.svg;" vertex="1" parent="mOpAcGfMaJ8iik6jQmdD-16">
          <mxGeometry x="30" y="3.96" width="46.82" height="46.82" as="geometry" />
        </mxCell>
        <mxCell id="mOpAcGfMaJ8iik6jQmdD-19" value="" style="sketch=0;outlineConnect=0;fontColor=#232F3E;gradientColor=none;fillColor=#232F3D;strokeColor=none;dashed=0;verticalLabelPosition=bottom;verticalAlign=top;align=center;html=1;fontSize=12;fontStyle=0;aspect=fixed;pointerEvents=1;shape=mxgraph.aws4.magnifying_glass;" vertex="1" parent="mOpAcGfMaJ8iik6jQmdD-16">
          <mxGeometry x="11.56" y="60" width="65.26" height="65.26" as="geometry" />
        </mxCell>
        <mxCell id="mOpAcGfMaJ8iik6jQmdD-20" value="Mejora" style="image;html=1;image=img/lib/clip_art/computers/Software_128x128.png;imageBackground=none;fontSize=16;fontStyle=1;fontFamily=Verdana;fontColor=#0066CC;" vertex="1" parent="1">
          <mxGeometry x="90" y="340" width="40" height="60" as="geometry" />
        </mxCell>
        <mxCell id="mOpAcGfMaJ8iik6jQmdD-22" value="" style="curved=1;endArrow=classic;html=1;rounded=0;" edge="1" parent="1">
          <mxGeometry width="50" height="50" relative="1" as="geometry">
            <mxPoint x="333" y="600" as="sourcePoint" />
            <mxPoint x="230" y="620" as="targetPoint" />
            <Array as="points">
              <mxPoint x="280" y="650" />
            </Array>
          </mxGeometry>
        </mxCell>
        <mxCell id="mOpAcGfMaJ8iik6jQmdD-23" value="Pruebas" style="edgeLabel;html=1;align=center;verticalAlign=middle;resizable=0;points=[];" vertex="1" connectable="0" parent="mOpAcGfMaJ8iik6jQmdD-22">
          <mxGeometry x="-0.2953" y="-2" relative="1" as="geometry">
            <mxPoint x="-16" y="30" as="offset" />
          </mxGeometry>
        </mxCell>
        <mxCell id="mOpAcGfMaJ8iik6jQmdD-24" value="&lt;div&gt;Escritura de &lt;br&gt;&lt;/div&gt;&lt;div&gt;Código Fuente&lt;br&gt;&lt;/div&gt;" style="shape=callout;whiteSpace=wrap;html=1;perimeter=calloutPerimeter;position2=1;" vertex="1" parent="1">
          <mxGeometry x="330" y="340" width="120" height="80" as="geometry" />
        </mxCell>
      </root>
    </mxGraphModel>
  </diagram>
</mxfile>
